# xmcd
#
# Track frame offsets: 
#        150
#        17033
#        30698
#        46238
#        62750
#        77545
#        95400
#        111745
#        131025
#        146408
#        166553
#        182803
#        196170
#        216070
#
# Disc length: 3059 seconds
#
# Revision: 4
# Processed by: cddbd v1.5.2PL0 Copyright (c) Steve Scherf et al.
# Submitted via: ExactAudioCopyFreeDBPlugin 1.0
#
DISCID=bb0bf10e
DTITLE=Boogie Kings - The Boogie Kings - Louisianna Country Soul
DYEAR=1993
DGENRE=Blues
TTITLE0=I Love that Swamp Pop Music
TTITLE1=Alligator Annie
TTITLE2=Take Me in Your Loving Arms
TTITLE3=Hey, Good Lookin'
TTITLE4=I'd Rather Go Blind
TTITLE5=For the Good Times
TTITLE6=Best Friends
TTITLE7=Boogie Chillun
TTITLE8=Pledging My Love
TTITLE9=Hold On, I'm Comin'
TTITLE10=Try Me
TTITLE11=Louisiana Country Soul
TTITLE12=You Don't Know Me
TTITLE13=I Feel Good
EXTD=YEAR: 1993
EXTT0=
EXTT1=
EXTT2=
EXTT3=
EXTT4=
EXTT5=
EXTT6=
EXTT7=
EXTT8=
EXTT9=
EXTT10=
EXTT11=
EXTT12=
EXTT13=
PLAYORDER=
